<svg xmlns="http://www.w3.org/2000/svg" aria-hidden="true" style="display:none">
  <symbol id="scenario-dark" viewBox="0 0 48 48">
    <rect x="10" y="12" width="28" height="26" rx="2" fill="none" stroke="#3a443f" stroke-width="1.5"/>
    <path d="M24 12v26M10 25h28" stroke="#3a443f" stroke-width="1.5"/>
    <path d="M10 12h7v13H10z" fill="#eef3ef" stroke="#3a443f" stroke-width="1.5"/>
    <path d="M31 15.5a3.5 3.5 0 0 0-5.5 2.8 3.5 3.5 0 0 0 5.5 2.7" fill="none" stroke="#4f7f62" stroke-width="1.5"/>
    <circle cx="33.5" cy="14" r="0.75" fill="#4f7f62"/>
    <circle cx="36" cy="17.5" r="0.55" fill="#4f7f62"/>
    <path d="M15 36h6v-3h-3v-5" stroke="#4f7f62" stroke-width="1.5" stroke-linecap="round" stroke-linejoin="round"/>
    <path d="M18 28c-1.5 0-2.5 1-2.5 2.2S16.5 32.5 18 32.5s2.5-1 2.5-2.3S19.5 28 18 28z" fill="none" stroke="#4f7f62" stroke-width="1.5"/>
  </symbol>
  <symbol id="scenario-pets" viewBox="0 0 48 48">
    <path d="M14 22v14h20V22" stroke="#3a443f" stroke-width="1.5" stroke-linecap="round" stroke-linejoin="round"/>
    <path d="M12 22l12-8 12 8" stroke="#3a443f" stroke-width="1.5" stroke-linecap="round" stroke-linejoin="round"/>
    <path d="M20 28.5c0-2 1.2-3.5 2.5-3.5s2.5 1.5 2.5 3.5v4.5H20v-4.5z" fill="#eef3ef" stroke="#3a443f" stroke-width="1.5"/>
    <circle cx="18.5" cy="26" r="1.1" fill="#3a443f"/>
    <circle cx="24.5" cy="26" r="1.1" fill="#3a443f"/>
    <path d="M21 29.5h4" stroke="#3a443f" stroke-width="1.5" stroke-linecap="round"/>
    <path d="M30 30c0-1.2.8-2 1.6-2 .8 0 1.4.8 1.4 2v2.5H30V30z" fill="none" stroke="#4f7f62" stroke-width="1.5"/>
    <path d="M31.2 28.2c.3-.8 1-1.2 1.5-1.2" stroke="#4f7f62" stroke-width="1.5" stroke-linecap="round"/>
    <path d="M27.5 33.5c.4.6 1 .9 1.6.9" stroke="#4f7f62" stroke-width="1.2" stroke-linecap="round"/>
  </symbol>
  <symbol id="scenario-sun" viewBox="0 0 48 48">
    <rect x="10" y="14" width="28" height="24" rx="2" fill="none" stroke="#3a443f" stroke-width="1.5"/>
    <path d="M24 14v24M10 26h28" stroke="#3a443f" stroke-width="1.5"/>
    <circle cx="30" cy="20" r="5" fill="#f3ead3" stroke="#3a443f" stroke-width="1.5"/>
    <path d="M30 12v3M30 25v3M36 20h3M21 20h3M34.5 14.5l2 2M23.5 23.5l2 2M34.5 25.5l2-2M23.5 16.5l2-2" stroke="#3a443f" stroke-width="1.5" stroke-linecap="round"/>
    <path d="M15 34h5v-3h-2.5v-4" stroke="#4f7f62" stroke-width="1.5" stroke-linecap="round" stroke-linejoin="round"/>
    <path d="M17.5 27c-1.2 0-2 .8-2 1.8s.8 1.7 2 1.7 2-.7 2-1.7-.8-1.8-2-1.8z" fill="none" stroke="#4f7f62" stroke-width="1.5"/>
  </symbol>
  <symbol id="scenario-easy" viewBox="0 0 48 48">
    <path d="M18 34V22c0-3 2-5.5 6-5.5s6 2.5 6 5.5v12" stroke="#4f7f62" stroke-width="1.5" stroke-linecap="round"/>
    <path d="M14 34h20" stroke="#3a443f" stroke-width="1.5" stroke-linecap="round"/>
    <path d="M16 34v3h16v-3" stroke="#3a443f" stroke-width="1.5" stroke-linecap="round" stroke-linejoin="round"/>
    <circle cx="33" cy="33" r="5" fill="#4f7f62"/>
    <path d="M30.5 33l2 2 4-4.5" stroke="#fff" stroke-width="1.5" stroke-linecap="round" stroke-linejoin="round"/>
  </symbol>
  <symbol id="scenario-office" viewBox="0 0 48 48">
    <path d="M12 32h24" stroke="#3a443f" stroke-width="1.5" stroke-linecap="round"/>
    <path d="M14 32v-4h10v4" stroke="#3a443f" stroke-width="1.5" stroke-linejoin="round"/>
    <rect x="26" y="18" width="10" height="8" rx="1" fill="none" stroke="#3a443f" stroke-width="1.5"/>
    <path d="M28 32v-6h6v6" stroke="#3a443f" stroke-width="1.5" stroke-linejoin="round"/>
    <path d="M16 24v8" stroke="#3a443f" stroke-width="1.5" stroke-linecap="round"/>
    <path d="M14 28h4" stroke="#3a443f" stroke-width="1.5" stroke-linecap="round"/>
    <path d="M12 20h6v2h-6z" stroke="#3a443f" stroke-width="1.5" stroke-linejoin="round"/>
    <path d="M15 28v-5c0-1 .8-1.8 1.8-1.8" stroke="#4f7f62" stroke-width="1.5" stroke-linecap="round"/>
    <path d="M15 24.5c-.8 0-1.5.6-1.5 1.3v.2" stroke="#4f7f62" stroke-width="1.5" stroke-linecap="round"/>
  </symbol>
  <symbol id="scenario-large" viewBox="0 0 48 48">
    <path d="M24 34V14" stroke="#4f7f62" stroke-width="1.5" stroke-linecap="round"/>
    <path d="M24 18c-4-1-7 1-7 5s3 6 7 5M24 24c4-1 7 1 7 5s-3 6-7 5M24 30c-3.5-.8-6 1-6 4.5" stroke="#4f7f62" stroke-width="1.5" stroke-linecap="round" stroke-linejoin="round"/>
    <path d="M17 34h14" stroke="#3a443f" stroke-width="1.5" stroke-linecap="round"/>
    <path d="M18 34v2.5h12V34" stroke="#3a443f" stroke-width="1.5" stroke-linejoin="round"/>
    <path d="M11 20v10M11 20l2-2M11 30l2 2" stroke="#3a443f" stroke-width="1.5" stroke-linecap="round" stroke-linejoin="round"/>
  </symbol>
</svg>
